<?xml version="1.0" encoding="utf-8"?>
<!-- Generator: Adobe Illustrator 16.0.0, SVG Export Plug-In . SVG Version: 6.00 Build 0)  -->
<!DOCTYPE svg PUBLIC "-//W3C//DTD SVG 1.1//EN" "http://www.w3.org/Graphics/SVG/1.1/DTD/svg11.dtd">
<svg version="1.1" id="Layer_2_1_" xmlns="http://www.w3.org/2000/svg" xmlns:xlink="http://www.w3.org/1999/xlink" x="0px" y="0px"
	 width="267px" height="254px" viewBox="-71 0 267 254" enable-background="new -71 0 267 254" xml:space="preserve">
<circle fill-rule="evenodd" clip-rule="evenodd" fill="#808184" cx="116.316" cy="84.046" r="70.502"/>
<g>
	<path fill-rule="evenodd" clip-rule="evenodd" fill="#333333" d="M-38.138,161.511c3.588-14.322,6.928-28.26,10.589-42.115
		c3.545-13.411,15.55-21.62,29.348-20.224c6.46,0.655,12.942,1.391,19.296,2.682c4.522,0.918,7.778-0.285,11.304-3.067
		c12.412-9.801,25.041-19.333,37.671-28.851c6.5-4.899,15.264-4.304,21.287,1.17c5.43,4.936,6.775,13.627,2.785,20.208
		c-1.355,2.235-3.329,4.237-5.395,5.874c-7.099,5.626-14.363,11.046-21.816,16.737c7.921,6.857,9.284,14.745,4.192,23.876
		c8.087,6.659,9.939,14.67,4.742,24.043c2.042,2.676,4.601,5.1,6.016,8.067c3.18,6.665,1.531,14.4-4.188,18.979
		c-17.51,14.019-35.245,27.746-56.816,35.246c-0.46,0.158-0.895,0.416-1.364,0.523c-4.146,0.95-6.698,2.44-6.869,7.771
		c-0.111,3.506-3.054,7.278-5.547,10.248c-2.309,2.75-5.65,4.664-8.636,6.811c-3.275,2.358-6.17,1.949-8.617-1.248
		c-17.583-22.981-35.143-45.979-52.679-68.999c-2.586-3.397-2.127-6.169,1.274-8.837c2.412-1.893,4.939-3.641,7.29-5.604
		C-49.554,160.861-44.162,160.231-38.138,161.511z M14.132,112.606c-0.018-0.506-0.035-1.015-0.051-1.523
		c-4.102-0.302-8.213-0.493-12.3-0.929c-9.328-1.002-16.46,3.543-18.82,12.607c-3.829,14.702-7.443,29.46-10.998,44.23
		c-0.314,1.308,0.035,3.225,0.836,4.287c10.986,14.598,22.142,29.07,33.146,43.652c1.289,1.707,2.454,1.995,4.292,1.268
		c5.222-2.067,10.536-3.906,15.705-6.094c16.11-6.819,29.464-17.874,43.163-28.382c3.252-2.493,4.111-5.515,2.475-8.227
		c-1.629-2.701-4.524-3.136-8.369-1.245c-2.885,1.42-5.503,1.209-7.505-1.486c-1.829-2.459-1.187-5.564,1.529-7.722
		c2.688-2.138,5.515-4.103,8.152-6.295c2.73-2.274,3.112-5.743,1.095-8.14c-1.927-2.291-5.12-2.543-7.905-0.51
		c-2.677,1.953-5.233,4.064-7.92,5.996c-3.027,2.175-6.255,1.877-8.183-0.611c-2.03-2.621-1.403-5.854,1.696-8.248
		c5.242-4.047,10.54-8.02,15.775-12.072c3.319-2.569,4.093-5.875,2.115-8.556c-1.984-2.692-5.39-2.824-8.742-0.282
		c-5.18,3.924-10.229,8.034-15.565,11.732c-1.62,1.123-4.153,1.838-5.997,1.447c-1.449-0.305-3.46-2.604-3.453-4.009
		c0.01-1.978,1.138-4.604,2.682-5.815c13.31-10.449,26.818-20.642,40.269-30.911c3.997-3.052,8.067-6.009,11.962-9.187
		c3.402-2.775,2.828-7.655-0.944-9.392c-2.743-1.266-4.869-0.08-7.039,1.585c-22.683,17.373-45.396,34.704-68.116,52.03
		c-3.646,2.779-6.963,2.702-9.044-0.1c-2.099-2.82-1.255-5.864,2.443-8.702C5.049,119.53,9.593,116.072,14.132,112.606z
		 M-4.394,237.372c7.718-4.279,8.341-7.009,3.251-13.676c-4.311-5.647-8.622-11.293-12.933-16.94
		c-8.027-10.513-16.046-21.035-24.087-31.537c-3.126-4.077-5.79-4.39-9.923-1.255c-0.951,0.719-1.896,1.445-2.983,2.275
		C-35.365,196.806-19.873,217.099-4.394,237.372z"/>
	<path fill-rule="evenodd" clip-rule="evenodd" fill="#FFFFFF" d="M14.132,112.606c-4.539,3.466-9.083,6.924-13.616,10.398
		c-3.698,2.837-4.542,5.881-2.443,8.702c2.081,2.802,5.398,2.879,9.044,0.1c22.721-17.326,45.434-34.657,68.116-52.03
		c2.17-1.665,4.296-2.851,7.039-1.585c3.772,1.737,4.347,6.616,0.944,9.392c-3.895,3.178-7.965,6.135-11.962,9.187
		c-13.45,10.269-26.959,20.462-40.269,30.911c-1.544,1.211-2.672,3.838-2.682,5.815c-0.007,1.405,2.004,3.704,3.453,4.009
		c1.844,0.391,4.377-0.324,5.997-1.447c5.337-3.698,10.386-7.809,15.565-11.732c3.353-2.542,6.758-2.41,8.742,0.282
		c1.978,2.681,1.204,5.986-2.115,8.556c-5.235,4.053-10.533,8.025-15.775,12.072c-3.1,2.395-3.727,5.627-1.696,8.248
		c1.928,2.488,5.155,2.786,8.183,0.611c2.687-1.932,5.243-4.043,7.92-5.996c2.785-2.033,5.979-1.781,7.905,0.51
		c2.018,2.396,1.636,5.865-1.095,8.14c-2.638,2.192-5.464,4.157-8.152,6.295c-2.716,2.157-3.358,5.263-1.529,7.722
		c2.002,2.695,4.62,2.906,7.505,1.486c3.845-1.891,6.74-1.456,8.369,1.245c1.637,2.712,0.777,5.733-2.475,8.227
		c-13.699,10.508-27.053,21.563-43.163,28.382c-5.169,2.188-10.483,4.026-15.705,6.094c-1.838,0.728-3.003,0.439-4.292-1.268
		c-11.005-14.582-22.16-29.055-33.146-43.652c-0.801-1.063-1.15-2.979-0.836-4.287c3.555-14.77,7.169-29.528,10.998-44.23
		c2.36-9.063,9.492-13.609,18.82-12.607c4.087,0.436,8.198,0.627,12.3,0.929C14.097,111.591,14.114,112.1,14.132,112.606z"/>
	<path fill-rule="evenodd" clip-rule="evenodd" fill="#FFFFFF" d="M-4.394,237.372c-15.479-20.273-30.972-40.566-46.675-61.133
		c1.087-0.83,2.032-1.557,2.983-2.275c4.133-3.135,6.797-2.822,9.923,1.255c8.041,10.502,16.06,21.024,24.087,31.537
		c4.311,5.647,8.622,11.293,12.933,16.94C3.947,230.363,3.324,233.093-4.394,237.372z"/>
</g>
</svg>
