<?xml version="1.0" encoding="utf-8"?>
<!-- Generator: Adobe Illustrator 16.0.0, SVG Export Plug-In . SVG Version: 6.00 Build 0)  -->
<!DOCTYPE svg PUBLIC "-//W3C//DTD SVG 1.1//EN" "http://www.w3.org/Graphics/SVG/1.1/DTD/svg11.dtd">
<svg fill="currentColor" version="1.1" xmlns="http://www.w3.org/2000/svg" xmlns:xlink="http://www.w3.org/1999/xlink" x="0px" y="0px" width="115px"
	 height="254px" viewBox="0 0 115 254" enable-background="new 0 0 115 254" xml:space="preserve">
<g id="Layer_1">
</g>
<g id="Layer_2">
	<path fill-rule="evenodd" clip-rule="evenodd" d="M63.333,2.999c0,0-5.166,32.004-33.333,65.335
		c-7.947,9.404-23.75,32.665-23.5,68.915c0.183,26.449,14.008,52.799,25.166,72.417c2.381,4.185,3.098,6.241,2.584,9.833
		c-1.121,7.852-6.75,14.25-6.75,14.25s-3.688,4.233-5,5.745c-1.01,1.163-1.855,2.361-0.334,3.666c3.863,3.312,7.334,8,7.334,8
		s12.32-8.088,18.834-28.166c2-6.166-0.334-11.666,7.332-17.328c11.827-8.735,24-17.068,38.334-35.671
		c15.667-20.333,24.667-70-7.667-112.667C64.259,28.2,63.333,2.999,63.333,2.999z"/>
</g>
</svg>
