<?xml version="1.0" encoding="utf-8"?>
<!-- Generator: Adobe Illustrator 16.0.0, SVG Export Plug-In . SVG Version: 6.00 Build 0)  -->
<!DOCTYPE svg PUBLIC "-//W3C//DTD SVG 1.1//EN" "http://www.w3.org/Graphics/SVG/1.1/DTD/svg11.dtd">
<svg version="1.1" fill="currentColor" id="Layer_1" xmlns="http://www.w3.org/2000/svg" xmlns:xlink="http://www.w3.org/1999/xlink" x="0px" y="0px"
	 width="67.72px" height="67.72px" viewBox="0 0 67.72 67.72" enable-background="new 0 0 67.72 67.72" xml:space="preserve">
<path d="M33.994,1.603c-17.95,0-32.5,14.551-32.5,32.5s14.551,32.5,32.5,32.5c17.949,0,32.5-14.551,32.5-32.5
	S51.943,1.603,33.994,1.603z M39.066,43.073c-3.461,2.48-6.009,3.293-8.519,4.191c-1.626,0.584-1.509,1.66-2.178,2.625
	c-2.18,3.148-4.742,3.908-4.742,3.908s-0.357-0.994-0.854-1.771c-0.197-0.307,0.013-0.471,0.249-0.619
	c0.307-0.193,1.168-0.736,1.168-0.736s1.312-0.818,1.917-2.123c0.277-0.596,0.259-0.99,0.064-1.842
	c-0.914-3.988-1.938-9.287-0.589-13.891c1.85-6.307,5.808-9.52,7.68-10.738c6.63-4.316,9.198-9.605,9.198-9.605
	s-1.154,4.424,1.158,10.635C47.005,32.204,42.849,40.358,39.066,43.073z"/>
</svg>
